# xmcd
#
# Track frame offsets:
#	150
#	15792
#	28577
#	44967
#	63343
#	87658
#	100029
#	115104
#	127561
#	160517
#	171846
#	188561
#	202559
#
# Disc length: 2894 seconds
#
# Revision: 1
# Processed by: cddbd v1.5.2PL0 Copyright (c) Steve Scherf et al.
# Submitted via: EZCDAudioConverter 7.0.6.1
#
DISCID=910b4c0d
DTITLE=Ìxtahuele - Call of the Islands
DYEAR=2016
DGENRE=
TTITLE0=Call Of The Islands
TTITLE1=Lli Pika
TTITLE2=Mohidji Lullaby
TTITLE3=Curitiba Train
TTITLE4=Mareld
TTITLE5=Serpentine Roads
TTITLE6=Lagoon Of Dreams
TTITLE7=El Naddaha
TTITLE8=Temple Of The Snake God
TTITLE9=At Sea
TTITLE10=Rose Of Bukhara
TTITLE11=Colors Of Hawaiki
TTITLE12=I Left My Heart At The Beach Of Fdengi
EXTD=
EXTT0=
EXTT1=
EXTT2=
EXTT3=
EXTT4=
EXTT5=
EXTT6=
EXTT7=
EXTT8=
EXTT9=
EXTT10=
EXTT11=
EXTT12=
PLAYORDER=
